<?xml version="1.0" encoding="utf-8"?>
<!-- Generator: Adobe Illustrator 16.0.0, SVG Export Plug-In . SVG Version: 6.00 Build 0)  -->
<!DOCTYPE svg PUBLIC "-//W3C//DTD SVG 1.1//EN" "http://www.w3.org/Graphics/SVG/1.1/DTD/svg11.dtd">
<svg version="1.1" id="Layer_1" xmlns="http://www.w3.org/2000/svg" xmlns:xlink="http://www.w3.org/1999/xlink" x="0px" y="0px"
	 width="3000px" height="2000px" viewBox="0 0 3000 2000" enable-background="new 0 0 3000 2000" xml:space="preserve">
<rect x="-35" width="3080" height="2057"/>
<g>
	<path fill="#FFFFFF" d="M-1874.128,1230.586v-29.704c38.708-4.503,43.208-11.701,43.208-64.813V939.829
		c0-54.909-2.7-63.011-46.808-63.011h-95.42v261.051c0,50.409,9.902,57.614,53.112,63.013v29.704h-222.342v-29.704
		c47.707-4.503,54.908-12.604,54.908-63.013V876.818h-61.21l-3.602-11.702l27.007-32.407h37.805v-19.804
		c0-31.506,8.102-57.611,21.606-84.616c14.403-28.807,37.805-54.011,70.212-78.316c42.307-32.405,91.817-50.41,133.228-52.209
		c53.108,1.8,86.417,22.504,104.418,42.308c13.505,17.103,15.304,35.107,8.103,49.51c-4.501,10.804-15.305,23.405-27.904,29.707
		c-16.205,9.902-29.708,8.102-37.809-2.699c-14.403-18.905-45.908-72.015-99.919-72.015c-24.305,0-41.409,20.703-48.61,53.11
		c-6.301,24.305-9.002,67.512-9.002,107.121v27.904h90.019c40.508,0,117.022-0.9,167.433-10.802v314.16
		c0,53.112,4.501,59.415,54.011,64.813v29.704H-1874.128z"/>
	<path fill="#FFFFFF" d="M-1363.743,1230.586v-28.806c37.807-6.297,42.31-9.001,42.31-72.913v-153.03
		c0-64.813-29.707-84.616-62.115-84.616c-22.504,0-43.207,9.902-66.611,27.905v217.845c0,55.809,5.401,58.513,42.308,64.81v28.806
		h-216.94v-28.806c55.811-8.099,60.311-9.001,60.311-69.312V946.13c0-54.009-4.5-57.61-48.609-65.711v-26.105
		c51.308-6.3,109.821-18.904,162.932-34.206v66.611c18.002-12.601,36.005-27.004,55.813-39.608
		c27.002-17.103,44.107-25.203,70.212-25.203c72.913,0,117.925,54.01,117.925,144.026v170.134c0,56.711,5.398,58.513,52.208,65.712
		v28.806H-1363.743z"/>
	<path fill="#FFFFFF" d="M-854.257,1230.586v-28.806c37.807-6.297,42.308-9.001,42.308-72.913v-153.03
		c0-64.813-29.707-84.616-62.113-84.616c-22.504,0-43.207,9.902-66.613,27.905v217.845c0,55.809,5.402,58.513,42.311,64.81v28.806
		h-216.943v-28.806c55.811-8.099,60.311-9.001,60.311-69.312V946.13c0-54.009-4.5-57.61-48.607-65.711v-26.105
		c51.31-6.3,109.822-18.904,162.93-34.206v66.611c18.004-12.601,36.007-27.004,55.813-39.608
		c27.005-17.103,44.107-25.203,70.213-25.203c72.914,0,117.924,54.01,117.924,144.026v170.134c0,56.711,5.4,58.513,52.21,65.712
		v28.806H-854.257z"/>
</g>
<path fill="#FFFFFF" d="M-2166.553,600.403c-44.29,0-61.683-0.037-105.976-0.198c0,0,1.43,81.098,1.43,81.131
	c-0.677,14.321-0.425,28.787-0.5,43.123c-0.308,64.262-2.315,128.523-2.391,192.786c-0.036,29.203-1.687,58.513-1.041,87.694
	c0.823,36.901-5.102,78.24-29.008,107.888c-36.504,45.288-99.039,46.021-150.089,37.535c-90.06-14.992-91.51-137.859-91.51-137.859
	c3.236-58.457,43.73-127.02,105.308-133.879c48.781-5.44,100.305-0.558,149.407-0.558c0,0,0-102.427,0-102.439
	c0,0.087-18.578,0.012-19.354,0.004c-30.647-0.136-61.287,0.355-91.929-0.181c-37.43-0.656-69.611,6.486-104.742,19.52
	c-21.359,7.927-41.575,18.984-58.792,34.367c-45.517,40.655-72.366,109.696-78.754,170.63c-1.799,17.158-1.726,34.488-0.345,51.676
	c0.784,9.767,7.413,41.072,9.755,47.78c6.939,19.873,18.738,37.849,30.624,54.873c17.106,24.503,37.651,46.555,61.588,64.025
	c32.13,23.449,70.198,38.287,109.53,41.263c9.882,0.748,20.232,1.135,30.078-0.431c31.727,1.313,66.293-3.016,95.887-15.147
	c42.267-17.332,73.772-47.947,98.698-86.437c9.439-14.579,19.554-29.107,25.133-45.826c9.647-28.914,11.302-63.48,11.246-93.795
	c-0.094-51.103,1.305-102.243,1.028-153.369c-0.158-29.637,0.326-59.318,0.436-88.953
	C-2170.836,775.625-2163.049,600.403-2166.553,600.403z"/>
<ellipse fill="#40B549" cx="-2405.756" cy="1023.744" rx="66.956" ry="69.073"/>
<text transform="matrix(1 0 0 1 -125.5107 -244.5732)" font-family="'Adlinnaka-BoldDemo'" font-size="457.1305">finnscan</text>
<rect x="1898.426" y="825.043" fill="#FFFFFF" width="228.228" height="201.739"/>
<path fill="#FFFFFF" d="M2126.653,431.543c0,0-306.929,7.873-275.447,393.5c-0.228,58.359-1.203,116.806-0.88,175.181
	c0.558,100.693-2.296,201.398-2.093,302.039c0.12,59.706-3.244,127.777-22.851,184.735c-11.332,32.916-31.877,61.526-51.06,90.24
	c-50.638,75.803-114.643,136.104-200.521,170.227c-60.106,23.884-130.339,32.418-194.795,29.841c0,0-306.926,47.221-480.066-330.535
	c-6.122-13.359-5.832-34.601-7.628-48.801c-5.496-43.469-7.097-87.493-2.381-131.114c12.969-119.999,67.524-255.965,159.997-336.039
	c34.98-30.292,76.047-52.066,119.447-67.679c71.368-25.669,136.74-39.73,212.782-38.446c62.256,1.054,124.504,0.08,186.769,0.361
	c1.57,0.008,39.312,0.157,39.312-0.01c0,0.018,0,201.739,0,201.739c-99.754,0-204.431-9.613-303.531,1.093
	c-125.104,13.514-207.367,148.551-213.944,263.661c0,0,2.951,241.985,185.915,271.501c103.719,16.729,230.755,15.269,304.922-73.905
	c48.564-58.397,60.602-139.809,58.931-212.485c-1.32-57.465,2.043-115.195,2.111-172.706c0.148-126.552,4.231-253.113,4.859-379.67
	c0.145-28.227-0.368-56.728,1.017-84.921c0.008-0.144,19.908-404.3,479.136-416.105V431.543z"/>
<circle fill="#40B549" cx="1376.018" cy="1294.488" r="144.454"/>
</svg>
